<svg width="44" height="44" viewBox="0 0 44 44" fill="none" xmlns="http://www.w3.org/2000/svg">
<g clip-path="url(#clip0_9471_72027)">
<g clip-path="url(#clip1_9471_72027)">
<path d="M30.3901 35.6007C30.7423 41.085 26.1279 42.8117 24.3204 42.9842C21.1221 43.4979 18.5785 42.0992 17.8941 38.9683C13.5114 40.3563 10.5581 36.8166 9.86772 34.3471C9.29364 31.7852 10.4264 30.0036 12.0018 28.6521C15.3018 25.5809 19.9015 27.5958 21.762 31.0832C26.7362 29.5538 28.0531 31.6732 28.7937 32.4481C29.2249 33.0294 29.0047 32.4787 28.9335 32.1662C28.843 31.7819 28.7987 31.4406 28.7946 31.0354C28.749 29.0224 30.1206 26.7902 30.8704 25.9421C35.1363 21.6524 40.5196 26.9834 40.1286 31.7465C39.7883 35.2102 37.4956 37.0323 34.7651 37.4771C32.8296 37.5692 31.5312 36.6519 30.3934 35.5995L30.3901 35.6007Z" fill="#D72300"/>
<path d="M25.1847 5.12814C26.5142 8.28229 25.5571 12.3449 21.9998 13.2898C18.1276 14.5216 15.0697 11.9549 14.0821 8.45488C12.4119 2.51633 18.1954 -0.651569 22.4107 1.35214C23.7968 2.19156 24.607 3.64853 25.178 5.13061C25.178 5.13061 25.1813 5.12938 25.1847 5.12814Z" fill="#D72300"/>
<path d="M35.8866 16.5106C37.1006 19.3952 36.4116 22.115 33.9631 23.7918C30.8772 26.0224 27.4715 25.0391 25.8371 21.8553C23.0076 16.4542 26.8776 12.4061 29.6336 11.6354C32.7303 10.8997 35.1204 14.1408 35.8866 16.5106Z" fill="#D72300"/>
<path d="M12.4797 25.8494C5.1033 28.6541 0.361923 17.879 7.76373 14.7785C12.3629 13.0311 15.7107 16.9323 16.379 20.0805C16.8208 23.2377 14.1501 25.2986 12.4797 25.8494Z" fill="#D72300"/>
<path d="M35.0491 27.656C35.2194 28.1537 32.8624 28.5799 32.6597 28.8852C32.9426 29.1187 36.1203 30.703 34.7858 30.6089C34.0226 30.3396 33.2227 30.0727 32.3913 29.9945C32.5667 31.0515 33.0507 32.0576 33.4414 33.0758C33.2333 34.7916 31.5501 31.0725 31.362 30.7697C31.1329 31.2467 31.002 31.8153 30.8992 32.3582C30.7095 34.3459 30.2849 32.8018 30.2392 31.9413C30.2124 31.1717 30.3081 30.4279 30.477 29.6682C29.1118 29.2993 27.6499 29.1058 26.3962 28.3489C25.9952 29.4662 25.777 30.7 25.6257 31.9013C27.3547 31.7505 27.7659 31.8534 25.9845 32.7431C29.1662 33.034 25.8567 33.623 25.5105 34.0383C25.7449 34.5159 26.153 34.8835 26.4561 35.3431C26.8353 36.3204 25.3948 35.0116 25.2014 34.8765C25.1992 35.1033 26.2278 36.4187 25.4369 36.1861C24.967 35.7133 24.6422 35.1752 24.1993 34.6435C24.5003 37.9888 23.5508 36.9867 23.2414 34.8422C23.0181 35.1325 21.7464 37.7945 21.7795 36.2154C22.0126 35.1833 22.5375 34.2872 23.1437 33.4173C22.8928 33.2697 22.6084 33.1836 22.2838 33.1313C22.2956 33.0214 22.2357 32.6483 22.3197 32.5907C22.8334 32.4633 23.3783 32.4599 23.9309 32.4875C24.4704 30.9231 24.8969 29.2879 25.289 27.6616C23.9458 26.8363 22.7092 25.832 21.4816 24.8318C20.5107 26.4816 19.5689 28.1996 18.7568 29.9522C19.1553 30.0109 20.4039 29.6625 20.186 30.3613C19.7553 30.6611 19.1439 30.7081 18.7 31.043C18.9889 31.3534 20.4212 32.2058 19.807 32.589C19.2297 32.4953 18.7445 32.0622 18.1145 32.0596C18.1984 32.4464 18.3892 32.8272 18.607 33.1792C18.7394 33.4538 19.4756 34.3583 18.8933 34.3418C18.1953 33.7017 17.6157 32.9648 16.9666 32.2537C16.7136 32.7472 16.6854 33.349 16.7028 33.9112C16.781 34.6467 16.8645 35.7605 16.1909 34.569C15.8181 33.7099 15.7677 32.7456 15.913 31.8215C15.4862 32.0407 15.0848 32.3786 14.751 32.7666C13.6118 34.1062 13.9032 32.8565 14.2237 32.3115C14.6266 31.6341 15.1646 31.1776 15.8062 30.7465C15.378 30.0925 14.7806 29.5505 14.3293 28.875C13.8462 27.6389 16.7482 30.0603 17.047 29.9829C18.2991 28.4204 20.7999 23.5379 20.3606 23.2684C19.3133 21.1955 19.1388 19.9084 18.7066 18.627C18.0697 17.0489 17.2088 15.5167 15.7416 14.5606C15.4804 14.4055 15.0496 13.9973 14.8991 14.0986C14.1298 14.9351 13.4376 15.8672 12.8638 16.8643C13.4872 17.1932 14.691 17.513 14.8776 17.7712C15.5304 18.6842 13.6523 18.2428 13.255 18.3795C13.4622 19.451 14.1223 20.3839 13.6251 20.5353C13.2357 20.8649 12.2153 18.7932 11.779 18.613C11.4602 18.9502 10.7009 21.7339 10.4322 20.0827C10.4352 16.9067 11.017 17.993 9.06782 18.1392C8.32914 17.8043 10.2033 16.5976 10.5265 16.5148C10.3097 15.7105 9.36092 14.1546 10.1272 14.3512C10.7748 14.9573 11.1943 15.8103 11.9102 16.3873C12.6606 15.49 13.1378 14.284 13.6605 13.2004C11.3847 11.7622 10.0055 9.04088 9.69436 6.75015C9.49901 5.18461 9.87121 3.62606 10.4105 2.15214C10.8052 1.27066 11.1468 0.529518 11.5229 0.204821C12.1984 -0.246464 13.1221 0.686153 13.1242 1.288C13.0929 1.80055 12.804 2.25845 12.6249 2.75829C11.8009 4.87311 11.8127 7.26027 12.7741 9.3351C12.9165 9.57581 15.0597 8.52499 15.0911 8.52836C14.8149 8.26217 14.4576 8.04124 14.102 7.83477C13.6473 7.60496 12.7331 7.04165 13.7135 6.94378C14.3429 6.99551 14.8976 7.24082 15.4861 7.46596C15.4244 7.16883 15.0781 4.54097 15.781 5.35621C16.022 6.05358 16.1969 6.74543 16.4722 7.43378C16.8253 6.51132 17.3014 5.62589 17.6198 4.67113C17.7358 4.31531 17.9004 3.27101 18.2839 3.9567C18.2596 5.30656 17.9251 6.60247 17.6104 7.92115C18.7594 7.21436 19.9341 6.09125 20.2232 6.11913C20.9769 6.59535 18.2202 8.65813 17.9954 9.09592C18.4906 9.68725 19.0872 10.2069 19.6805 10.7278C20.4291 12.0194 17.4554 9.91099 17.1856 9.92487C18.4493 13.9434 17.392 12.5107 16.3555 10.4262C16.2434 10.9237 16.3949 11.5528 16.4821 12.1003C16.486 12.2118 16.5439 12.3672 16.3877 12.4028C15.7163 12.4609 15.2782 9.85967 15.2391 9.63323C14.6205 9.73187 14.0118 10.0491 13.3786 10.2096C14.74 12.0036 16.9657 12.9332 18.334 14.766C19.913 16.7802 19.5131 16.9706 20.0149 17.4277C22.18 18.862 25.2494 19.3266 27.2344 19.216C26.9351 16.6234 25.8846 16.2803 26.2171 15.889C26.9121 15.5811 27.906 17.723 28.0794 17.9559C28.2352 17.3027 28.2079 16.5823 28.2416 15.8843C28.2349 15.1184 28.7598 15.5669 28.8733 16.0029C29.1249 16.7792 29.1393 17.5761 29.1669 18.3981C29.9883 18.834 30.9696 18.9204 31.8362 19.3056C32.3834 19.9453 29.7203 19.7624 29.5165 19.8723C29.7848 20.3599 30.2416 20.7471 30.7044 21.0793C32.1006 21.8246 31.0937 21.9323 30.5078 21.8154C29.9051 21.6634 29.3803 21.3467 28.8577 20.9953C28.8011 21.5813 28.9863 22.2806 29.0416 22.904C29.2555 26.0257 27.8517 21.8333 27.6233 21.2405C26.7287 23.7319 26.5001 21.6929 26.967 20.4493C24.3907 20.6408 22.5418 20.0755 20.5729 19.3703C21.5736 22.3495 23.6294 23.945 25.3113 25.548C27.3637 26.9828 29.8323 28.2814 30.948 28.4759C32.8976 24.0548 32.8047 26.1609 32.5304 26.941C32.4391 27.3328 32.352 27.7155 32.3251 28.1285C33.1398 27.8589 34.7668 27.313 35.033 27.613L35.0454 27.6461L35.0491 27.656Z" fill="#198737"/>
<path d="M17.9005 39.1224C17.9301 38.9795 17.7827 38.9478 18.0155 38.8347C21.7868 36.1491 22.1163 33.6875 21.6774 31.0941C21.7977 31.0531 21.9077 31.0046 22.0246 30.9648C23.0921 34.1939 20.8891 37.7528 17.9846 39.1965C17.9685 39.1836 17.95 39.1642 17.9227 39.1819L17.8993 39.1191L17.9005 39.1224Z" fill="#502314"/>
<path d="M13.1714 1.28966C13.1833 1.69573 12.956 1.7729 12.6393 1.9135C11.811 2.14677 11.2661 1.38184 11.1544 0.677731C11.2374 0.496157 11.3418 0.351805 11.4337 0.294997C11.6483 1.32607 12.2166 1.96175 13.0905 1.08254L13.1681 1.29089L13.1714 1.28966Z" fill="#502314"/>
</g>
</g>
<defs>
<clipPath id="clip0_9471_72027">
<rect width="44" height="43.1946" fill="white"/>
</clipPath>
<clipPath id="clip1_9471_72027">
<rect width="31.4563" height="44.7617" fill="white" transform="translate(-1.89844 5.18726) rotate(-20.4339)"/>
</clipPath>
</defs>
</svg>
